<svg xmlns="http://www.w3.org/2000/svg" viewBox="0 0 900 600">
  <rect fill="#DE2910" width="900" height="600"/>
  <g transform="translate(150,200)" fill="#FFDE00">
    <polygon points="0,-80 18.5,-24.7 76.1,-24.7 29.8,9.4 48.3,64.7 0,30.6 -48.3,64.7 -29.8,9.4 -76.1,-24.7 -18.5,-24.7"/>
  </g>
  <g fill="#FFDE00">
    <polygon points="312,60 318.7,80.6 340.4,80.6 322.9,93.4 329.5,114 312,101.2 294.5,114 301.1,93.4 283.6,80.6 305.3,80.6" transform="rotate(23.2,312,60)"/>
    <polygon points="360,120 366.7,140.6 388.4,140.6 370.9,153.4 377.5,174 360,161.2 342.5,174 349.1,153.4 331.6,140.6 353.3,140.6" transform="rotate(-11,360,120)"/>
    <polygon points="360,210 366.7,230.6 388.4,230.6 370.9,243.4 377.5,264 360,251.2 342.5,264 349.1,243.4 331.6,230.6 353.3,230.6" transform="rotate(-33,360,210)"/>
    <polygon points="312,270 318.7,290.6 340.4,290.6 322.9,303.4 329.5,324 312,311.2 294.5,324 301.1,303.4 283.6,290.6 305.3,290.6" transform="rotate(-55,312,270)"/>
  </g>
</svg>
